<?xml version="1.0" encoding="utf-8"?>
<!-- Generator: Adobe Illustrator 24.1.2, SVG Export Plug-In . SVG Version: 6.00 Build 0)  -->
<svg version="1.1" id="Camada_1" xmlns="http://www.w3.org/2000/svg" xmlns:xlink="http://www.w3.org/1999/xlink" x="0px" y="0px"
	 viewBox="0 0 376 25" style="enable-background:new 0 0 376 25;" xml:space="preserve">
<style type="text/css">
	.st0{fill:#BB00FF;}
</style>
<g>
	<g>
		<g>
			<g>
				<path class="st0" d="M1.2,24.81l9.61-25h2.61l-9.6,25H1.2z"/>
			</g>
		</g>
		<g>
			<g>
				<path class="st0" d="M11.49,24.81l9.61-25h2.61l-9.6,25H11.49z"/>
			</g>
		</g>
		<g>
			<g>
				<path class="st0" d="M21.79,24.81l9.61-25h2.61l-9.6,25H21.79z"/>
			</g>
		</g>
		<g>
			<g>
				<path class="st0" d="M32.08,24.81l9.61-25h2.61l-9.6,25H32.08z"/>
			</g>
		</g>
		<g>
			<g>
				<path class="st0" d="M42.37,24.81l9.61-25h2.61l-9.6,25H42.37z"/>
			</g>
		</g>
		<g>
			<g>
				<path class="st0" d="M52.66,24.81l9.61-25h2.61l-9.6,25H52.66z"/>
			</g>
		</g>
		<g>
			<g>
				<path class="st0" d="M62.96,24.81l9.61-25h2.61l-9.6,25H62.96z"/>
			</g>
		</g>
		<g>
			<g>
				<path class="st0" d="M73.25,24.81l9.61-25h2.61l-9.6,25H73.25z"/>
			</g>
		</g>
		<g>
			<g>
				<path class="st0" d="M83.54,24.81l9.61-25h2.61l-9.6,25H83.54z"/>
			</g>
		</g>
		<g>
			<g>
				<path class="st0" d="M93.84,24.81l9.61-25h2.61l-9.6,25H93.84z"/>
			</g>
		</g>
		<g>
			<g>
				<path class="st0" d="M104.13,24.81l9.61-25h2.61l-9.6,25H104.13z"/>
			</g>
		</g>
		<g>
			<g>
				<path class="st0" d="M114.42,24.81l9.61-25h2.61l-9.6,25H114.42z"/>
			</g>
		</g>
		<g>
			<g>
				<path class="st0" d="M124.72,24.81l9.61-25h2.61l-9.6,25H124.72z"/>
			</g>
		</g>
		<g>
			<g>
				<path class="st0" d="M135.01,24.81l9.61-25h2.61l-9.6,25H135.01z"/>
			</g>
		</g>
		<g>
			<g>
				<path class="st0" d="M145.3,24.81l9.61-25h2.61l-9.6,25H145.3z"/>
			</g>
		</g>
		<g>
			<g>
				<path class="st0" d="M155.59,24.81l9.61-25h2.61l-9.6,25H155.59z"/>
			</g>
		</g>
		<g>
			<g>
				<path class="st0" d="M165.89,24.81l9.61-25h2.61l-9.6,25H165.89z"/>
			</g>
		</g>
		<g>
			<g>
				<path class="st0" d="M176.18,24.81l9.61-25h2.61l-9.6,25H176.18z"/>
			</g>
		</g>
	</g>
	<g>
		<g>
			<g>
				<path class="st0" d="M186.4,24.81l9.61-25h2.61l-9.6,25H186.4z"/>
			</g>
		</g>
		<g>
			<g>
				<path class="st0" d="M196.7,24.81l9.61-25h2.61l-9.6,25H196.7z"/>
			</g>
		</g>
		<g>
			<g>
				<path class="st0" d="M206.99,24.81l9.61-25h2.61l-9.6,25H206.99z"/>
			</g>
		</g>
		<g>
			<g>
				<path class="st0" d="M217.28,24.81l9.61-25h2.61l-9.6,25H217.28z"/>
			</g>
		</g>
		<g>
			<g>
				<path class="st0" d="M227.58,24.81l9.61-25h2.61l-9.6,25H227.58z"/>
			</g>
		</g>
		<g>
			<g>
				<path class="st0" d="M237.87,24.81l9.61-25h2.61l-9.6,25H237.87z"/>
			</g>
		</g>
		<g>
			<g>
				<path class="st0" d="M248.16,24.81l9.61-25h2.61l-9.6,25H248.16z"/>
			</g>
		</g>
		<g>
			<g>
				<path class="st0" d="M258.45,24.81l9.61-25h2.61l-9.6,25H258.45z"/>
			</g>
		</g>
		<g>
			<g>
				<path class="st0" d="M268.75,24.81l9.61-25h2.61l-9.6,25H268.75z"/>
			</g>
		</g>
		<g>
			<g>
				<path class="st0" d="M279.04,24.81l9.61-25h2.61l-9.6,25H279.04z"/>
			</g>
		</g>
		<g>
			<g>
				<path class="st0" d="M289.33,24.81l9.61-25h2.61l-9.6,25H289.33z"/>
			</g>
		</g>
		<g>
			<g>
				<path class="st0" d="M299.63,24.81l9.61-25h2.61l-9.6,25H299.63z"/>
			</g>
		</g>
		<g>
			<g>
				<path class="st0" d="M309.92,24.81l9.61-25h2.61l-9.6,25H309.92z"/>
			</g>
		</g>
		<g>
			<g>
				<path class="st0" d="M320.21,24.81l9.61-25h2.61l-9.6,25H320.21z"/>
			</g>
		</g>
		<g>
			<g>
				<path class="st0" d="M330.51,24.81l9.61-25h2.61l-9.6,25H330.51z"/>
			</g>
		</g>
		<g>
			<g>
				<path class="st0" d="M340.8,24.81l9.61-25h2.61l-9.6,25H340.8z"/>
			</g>
		</g>
		<g>
			<g>
				<path class="st0" d="M351.09,24.81l9.61-25h2.61l-9.6,25H351.09z"/>
			</g>
		</g>
		<g>
			<g>
				<path class="st0" d="M361.38,24.81l9.61-25h2.61l-9.6,25H361.38z"/>
			</g>
		</g>
	</g>
</g>
</svg>
