<svg id="Camada_1" data-name="Camada 1" xmlns="http://www.w3.org/2000/svg" viewBox="0 0 150 18"><defs><style>.cls-1{fill:#b0f;}.cls-2{fill:#3d3d3d;}</style></defs><path class="cls-1" d="M8,15.91,13.31,2.09h1.44L9.45,15.91Z"/><path class="cls-2" d="M37,3.18H39.8a5.14,5.14,0,0,1,1.62.27,4.44,4.44,0,0,1,1.27.69,4,4,0,0,1,.88,1,5.23,5.23,0,0,1,.57,1.22,6.06,6.06,0,0,1,.23,1.32,6.9,6.9,0,0,1,0,1.43L44.2,10a9.15,9.15,0,0,1-.41,1.6A7.69,7.69,0,0,1,43.1,13a6.54,6.54,0,0,1-.94,1.16,6,6,0,0,1-1.15.88,6.16,6.16,0,0,1-1.49.62,6.38,6.38,0,0,1-1.72.22h-3Zm-.37,11.41h1.17a5.37,5.37,0,0,0,1.3-.18,4.62,4.62,0,0,0,2-1.2,5.67,5.67,0,0,0,.69-.92,5.92,5.92,0,0,0,.49-1.08,7,7,0,0,0,.31-1.2l.14-1a7.58,7.58,0,0,0,.06-1.16,4.86,4.86,0,0,0-.16-1.09A3.06,3.06,0,0,0,42.33,6a3.17,3.17,0,0,0-.54-.71,3.18,3.18,0,0,0-.86-.52,3.62,3.62,0,0,0-1.15-.22H38.42Z"/><path class="cls-2" d="M51.48,12.61l-1.58,3.3H48.26l6.2-12.73h1.33l1.7,12.73H56l-.4-3.3Zm3.93-1.4L54.75,5.7l-2.62,5.51Z"/><path class="cls-2" d="M69.35,15.91,66.19,6.33,64.5,15.91H62.9L65.12,3.18h1.55l3.17,9.56,1.68-9.56h1.6L70.91,15.91Z"/><path class="cls-2" d="M78.49,3.18h1.64l1.21,9.44.09.67.26-.59,4.23-9.52h1.73L81.77,15.91H80.4Z"/><path class="cls-2" d="M101,3.18l-.25,1.41h-3l-1.72,9.92h3l-.24,1.4H91.34l.24-1.4h2.9L96.2,4.59H93.3l.25-1.41Z"/><path class="cls-2" d="M107.82,12.61l-1.57,3.3H104.6l6.2-12.73h1.33l1.7,12.73h-1.51l-.4-3.3Zm3.93-1.4-.66-5.51-2.62,5.51Z"/><path class="cls-2" d="M125.7,15.91l-3.17-9.58-1.68,9.58h-1.6l2.21-12.73H123l3.17,9.56,1.68-9.56h1.6l-2.21,12.73Z"/><path class="cls-2" d="M136,12.61l-1.57,3.3h-1.65L139,3.18h1.33L142,15.91h-1.51l-.4-3.3Zm3.93-1.4-.66-5.51-2.62,5.51Z"/></svg>