<?xml version="1.0" encoding="utf-8"?>
<!-- Generator: Adobe Illustrator 24.1.2, SVG Export Plug-In . SVG Version: 6.00 Build 0)  -->
<svg version="1.1" id="Camada_1" xmlns="http://www.w3.org/2000/svg" xmlns:xlink="http://www.w3.org/1999/xlink" x="0px" y="0px"
	 viewBox="0 0 150 18" style="enable-background:new 0 0 150 18;" xml:space="preserve">
<style type="text/css">
	.st0{fill:#BB00FF;}
	.st1{fill:#FFFFFF;}
</style>
<path class="st0" d="M8,15.91l5.31-13.82h1.44l-5.3,13.82H8z"/>
<path class="st1" d="M37,3.18h2.8c0.55,0,1.1,0.09,1.62,0.27c0.46,0.16,0.89,0.39,1.27,0.69c0.35,0.28,0.64,0.62,0.88,1
	c0.24,0.38,0.43,0.79,0.57,1.22c0.13,0.43,0.2,0.87,0.23,1.32c0.05,0.48,0.05,0.95,0,1.43L44.2,10c-0.09,0.54-0.23,1.08-0.41,1.6
	c-0.18,0.49-0.41,0.96-0.69,1.4c-0.27,0.42-0.58,0.81-0.94,1.16c-0.35,0.34-0.73,0.63-1.15,0.88c-0.47,0.27-0.97,0.48-1.49,0.62
	c-0.56,0.15-1.14,0.23-1.72,0.22h-3L37,3.18z M36.63,14.59h1.17c0.44-0.01,0.88-0.07,1.3-0.18c0.76-0.22,1.45-0.64,2-1.2
	c0.26-0.28,0.49-0.59,0.69-0.92c0.2-0.34,0.36-0.7,0.49-1.08c0.14-0.39,0.24-0.79,0.31-1.2l0.14-1c0.05-0.38,0.07-0.77,0.06-1.16
	c-0.01-0.37-0.07-0.73-0.16-1.09c-0.07-0.27-0.17-0.52-0.3-0.76C42.18,5.74,42,5.5,41.79,5.29c-0.26-0.22-0.55-0.39-0.86-0.52
	c-0.37-0.14-0.76-0.21-1.15-0.22h-1.36L36.63,14.59z"/>
<path class="st1" d="M51.48,12.61l-1.58,3.3h-1.64l6.2-12.73h1.33l1.7,12.73H56l-0.4-3.3H51.48z M55.41,11.21L54.75,5.7l-2.62,5.51
	H55.41z"/>
<path class="st1" d="M69.35,15.91l-3.16-9.58l-1.69,9.58h-1.6l2.22-12.73h1.55l3.17,9.56l1.68-9.56h1.6l-2.21,12.73H69.35z"/>
<path class="st1" d="M78.49,3.18h1.64l1.21,9.44l0.09,0.67l0.26-0.59l4.23-9.52h1.73l-5.88,12.73H80.4L78.49,3.18z"/>
<path class="st1" d="M101,3.18l-0.25,1.41h-3l-1.72,9.92h3l-0.24,1.4h-7.45l0.24-1.4h2.9l1.72-9.92h-2.9l0.25-1.41L101,3.18z"/>
<path class="st1" d="M107.82,12.61l-1.57,3.3h-1.65l6.2-12.73h1.33l1.7,12.73h-1.51l-0.4-3.3H107.82z M111.75,11.21l-0.66-5.51
	l-2.62,5.51H111.75z"/>
<path class="st1" d="M125.7,15.91l-3.17-9.58l-1.68,9.58h-1.6l2.21-12.73H123l3.17,9.56l1.68-9.56h1.6l-2.21,12.73H125.7z"/>
<path class="st1" d="M136,12.61l-1.57,3.3h-1.65L139,3.18h1.33L142,15.91h-1.51l-0.4-3.3H136z M139.93,11.21l-0.66-5.51l-2.62,5.51
	H139.93z"/>
</svg>
